{
  "accessors": [
    {
      "bufferView": 2,
      "componentType": 5126,
      "count": 5052,
      "max": [
        2.2561769485473633,
        7.86088228225708,
        1.7499704360961914
      ],
      "min": [
        -2.2601356506347656,
        -8.089133262634277,
        -1.7443852424621582
      ],
      "type": "VEC3"
    },
    {
      "bufferView": 2,
      "byteOffset": 60624,
      "componentType": 5126,
      "count": 5052,
      "max": [
        0.9996253252029419,
        0.9996951818466187,
        0.9997720122337341
      ],
      "min": [
        -0.9999966621398926,
        -0.9999999403953552,
        -0.9993693828582764
      ],
      "type": "VEC3"
    },
    {
      "bufferView": 1,
      "componentType": 5126,
      "count": 5052,
      "max": [
        0.9999035596847534,
        0.9769497513771057
      ],
      "min": [
        5.871802568435669e-05,
        8.954480290412903e-05
      ],
      "type": "VEC2"
    },
    {
      "bufferView": 1,
      "byteOffset": 40416,
      "componentType": 5126,
      "count": 5052,
      "max": [
        0.9999035596847534,
        0.9769497513771057
      ],
      "min": [
        5.871802568435669e-05,
        8.954480290412903e-05
      ],
      "type": "VEC2"
    },
    {
      "bufferView": 1,
      "byteOffset": 80832,
      "componentType": 5126,
      "count": 5052,
      "max": [
        0.9999035596847534,
        0.9769497513771057
      ],
      "min": [
        5.871802568435669e-05,
        8.954480290412903e-05
      ],
      "type": "VEC2"
    },
    {
      "bufferView": 0,
      "componentType": 5125,
      "count": 25566,
      "type": "SCALAR"
    },
    {
      "bufferView": 2,
      "byteOffset": 121248,
      "componentType": 5126,
      "count": 16406,
      "max": [
        95.09945678710938,
        219.11102294921875,
        75.08670043945313
      ],
      "min": [
        -93.41680908203125,
        16.050207138061523,
        -123.57099914550781
      ],
      "type": "VEC3"
    },
    {
      "bufferView": 2,
      "byteOffset": 318120,
      "componentType": 5126,
      "count": 16406,
      "max": [
        0.999976634979248,
        0.9998798370361328,
        0.9999167323112488
      ],
      "min": [
        -0.9999625086784363,
        -0.9999801516532898,
        -0.9997863173484802
      ],
      "type": "VEC3"
    },
    {
      "bufferView": 1,
      "byteOffset": 121248,
      "componentType": 5126,
      "count": 16406,
      "max": [
        0.632229208946228,
        0.5264261960983276
      ],
      "min": [
        0.0004966300912201405,
        0.0006723701953887939
      ],
      "type": "VEC2"
    },
    {
      "bufferView": 1,
      "byteOffset": 252496,
      "componentType": 5126,
      "count": 16406,
      "max": [
        0.632229208946228,
        0.5264261960983276
      ],
      "min": [
        0.0004966300912201405,
        0.0006723701953887939
      ],
      "type": "VEC2"
    },
    {
      "bufferView": 1,
      "byteOffset": 383744,
      "componentType": 5126,
      "count": 16406,
      "max": [
        0.632229208946228,
        0.5264261960983276
      ],
      "min": [
        0.0004966300912201405,
        0.0006723701953887939
      ],
      "type": "VEC2"
    },
    {
      "bufferView": 0,
      "byteOffset": 102264,
      "componentType": 5125,
      "count": 94374,
      "type": "SCALAR"
    }
  ],
  "asset": {
    "extras": {
      "author": "Bielg3GetsNintendo (https://sketchfab.com/Bielg3GetsNintendo)",
      "license": "CC-BY-4.0 (http://creativecommons.org/licenses/by/4.0/)",
      "source": "https://sketchfab.com/3d-models/ishowspeed-849f6f5a291f42ccba866a6ae1ca7ebb",
      "title": "IShowSpeed"
    },
    "generator": "Sketchfab-14.30.0",
    "version": "2.0"
  },
  "bufferViews": [
    {
      "buffer": 0,
      "byteLength": 479760,
      "name": "floatBufferViews",
      "target": 34963
    },
    {
      "buffer": 0,
      "byteLength": 514992,
      "byteOffset": 479760,
      "byteStride": 8,
      "name": "floatBufferViews",
      "target": 34962
    },
    {
      "buffer": 0,
      "byteLength": 514992,
      "byteOffset": 994752,
      "byteStride": 12,
      "name": "floatBufferViews",
      "target": 34962
    }
  ],
  "buffers": [
    {
      "byteLength": 1509744,
      "uri": "scene.bin"
    }
  ],
  "extensionsRequired": [
    "KHR_materials_pbrSpecularGlossiness"
  ],
  "extensionsUsed": [
    "KHR_materials_pbrSpecularGlossiness"
  ],
  "images": [
    {
      "uri": "textures/material_diffuse.png"
    },
    {
      "uri": "textures/material_specularGlossiness.png"
    },
    {
      "uri": "textures/material_1_diffuse.png"
    },
    {
      "uri": "textures/material_1_specularGlossiness.png"
    }
  ],
  "materials": [
    {
      "doubleSided": true,
      "extensions": {
        "KHR_materials_pbrSpecularGlossiness": {
          "diffuseFactor": [
            1.0,
            1.0,
            1.0,
            1.0
          ],
          "diffuseTexture": {
            "index": 0
          },
          "glossinessFactor": 1.0,
          "specularFactor": [
            1.0,
            1.0,
            1.0
          ],
          "specularGlossinessTexture": {
            "index": 1
          }
        }
      },
      "name": "material"
    },
    {
      "doubleSided": true,
      "extensions": {
        "KHR_materials_pbrSpecularGlossiness": {
          "diffuseFactor": [
            1.0,
            1.0,
            1.0,
            1.0
          ],
          "diffuseTexture": {
            "index": 2
          },
          "glossinessFactor": 1.0,
          "specularFactor": [
            1.0,
            1.0,
            1.0
          ],
          "specularGlossinessTexture": {
            "index": 3
          }
        }
      },
      "name": "material_1"
    }
  ],
  "meshes": [
    {
      "name": "Object_0",
      "primitives": [
        {
          "attributes": {
            "NORMAL": 1,
            "POSITION": 0,
            "TEXCOORD_0": 2,
            "TEXCOORD_1": 3,
            "TEXCOORD_2": 4
          },
          "indices": 5,
          "material": 0,
          "mode": 4
        }
      ]
    },
    {
      "name": "Object_1",
      "primitives": [
        {
          "attributes": {
            "NORMAL": 7,
            "POSITION": 6,
            "TEXCOORD_0": 8,
            "TEXCOORD_1": 9,
            "TEXCOORD_2": 10
          },
          "indices": 11,
          "material": 1,
          "mode": 4
        }
      ]
    }
  ],
  "nodes": [
    {
      "children": [
        1
      ],
      "matrix": [
        1.0,
        0.0,
        0.0,
        0.0,
        0.0,
        2.220446049250313e-16,
        -1.0,
        0.0,
        0.0,
        1.0,
        2.220446049250313e-16,
        0.0,
        0.0,
        0.0,
        0.0,
        1.0
      ],
      "name": "Sketchfab_model"
    },
    {
      "children": [
        2
      ],
      "name": "root"
    },
    {
      "children": [
        3
      ],
      "matrix": [
        1.0,
        0.0,
        0.0,
        0.0,
        0.0,
        2.220446049250313e-16,
        1.0,
        0.0,
        0.0,
        -1.0,
        2.220446049250313e-16,
        0.0,
        0.0,
        0.0,
        0.0,
        1.0
      ],
      "name": "GLTF_SceneRootNode"
    },
    {
      "children": [
        4,
        6
      ],
      "name": "root_1"
    },
    {
      "children": [
        5
      ],
      "matrix": [
        0.019030524417757988,
        0.0,
        0.0,
        0.0,
        0.0,
        0.019030526280403137,
        0.0,
        0.0,
        0.0,
        0.0,
        0.019030524417757988,
        0.0,
        -0.00925533939152956,
        -0.027059538289904594,
        0.19999080896377563,
        1.0
      ],
      "name": "_0"
    },
    {
      "mesh": 0,
      "name": "Object_5"
    },
    {
      "children": [
        7
      ],
      "matrix": [
        0.00023398050689138472,
        0.0,
        0.0,
        0.0,
        0.0,
        0.0002262552734464407,
        0.0,
        0.0,
        0.0,
        0.0,
        0.0002262552734464407,
        0.0,
        -0.00961444154381752,
        0.0762321725487709,
        0.19207452237606049,
        1.0
      ],
      "name": "node_id56_2"
    },
    {
      "mesh": 1,
      "name": "Object_7"
    }
  ],
  "samplers": [
    {
      "magFilter": 9729,
      "minFilter": 9987,
      "wrapS": 10497,
      "wrapT": 10497
    }
  ],
  "scene": 0,
  "scenes": [
    {
      "name": "Sketchfab_Scene",
      "nodes": [
        0
      ]
    }
  ],
  "textures": [
    {
      "sampler": 0,
      "source": 0
    },
    {
      "sampler": 0,
      "source": 1
    },
    {
      "sampler": 0,
      "source": 2
    },
    {
      "sampler": 0,
      "source": 3
    }
  ]
}
